<?xml version="1.0" encoding="iso-8859-1"?>
<!-- Generator: Adobe Illustrator 19.0.0, SVG Export Plug-In . SVG Version: 6.00 Build 0)  -->
<svg version="1.1" id="Capa_1" xmlns="http://www.w3.org/2000/svg" xmlns:xlink="http://www.w3.org/1999/xlink" x="0px" y="0px"
	 viewBox="0 0 360 360" style="enable-background:new 0 0 360 360;" xml:space="preserve">
<g id="XMLID_88_">
	<path id="XMLID_89_" d="M344.956,124.791h-49.912V77.834L212.021,0H15.044v360h280v-52.481h49.912V124.791z M314.956,277.519h-210
		V154.792h210V277.519z"/>
	<path id="XMLID_92_" d="M156.542,235.55c-1.921,1.44-4.711,2.16-8.37,2.16c-3.24,0-5.94-0.54-8.1-1.62
		c-2.16-1.08-4.02-2.61-5.58-4.59l-6.84,8.55c2.34,2.82,5.265,4.964,8.775,6.435c3.51,1.47,7.544,2.205,12.105,2.205
		c3.6,0,6.84-0.436,9.72-1.305c2.88-0.87,5.324-2.101,7.335-3.69c2.009-1.59,3.569-3.525,4.68-5.805
		c1.11-2.281,1.665-4.829,1.665-7.65c0-4.199-1.156-7.754-3.465-10.665c-2.311-2.91-5.325-4.694-9.045-5.355
		c1.679-0.299,3.225-0.9,4.635-1.8c1.409-0.9,2.624-2.009,3.645-3.33c1.019-1.319,1.8-2.79,2.34-4.41c0.54-1.62,0.81-3.33,0.81-5.13
		c0-2.399-0.495-4.574-1.485-6.525c-0.99-1.949-2.4-3.614-4.23-4.995c-1.831-1.379-4.005-2.46-6.525-3.24
		c-2.52-0.779-5.31-1.17-8.37-1.17c-2.34,0-4.621,0.225-6.84,0.675c-2.221,0.45-4.275,1.08-6.165,1.89
		c-1.89,0.81-3.586,1.77-5.085,2.88c-1.501,1.111-2.7,2.355-3.6,3.735l7.56,8.46c1.379-2.279,3.164-4.05,5.355-5.31
		c2.189-1.26,4.665-1.89,7.425-1.89c2.7,0,4.89,0.6,6.57,1.8c1.679,1.201,2.52,3.031,2.52,5.49c0,2.581-1.021,4.695-3.06,6.345
		c-2.04,1.651-4.92,2.475-8.64,2.475h-2.79v9h2.52c4.5,0,7.86,0.841,10.08,2.52c2.219,1.681,3.33,4.081,3.33,7.2
		C159.422,231.891,158.461,234.11,156.542,235.55z"/>
	<path id="XMLID_93_" d="M218.236,245.81c3.87-1.53,7.185-3.69,9.945-6.48c2.759-2.79,4.874-6.149,6.345-10.08
		c1.47-3.929,2.205-8.325,2.205-13.185c0-4.379-0.661-8.505-1.98-12.375c-1.32-3.87-3.3-7.245-5.94-10.125
		c-2.641-2.88-5.926-5.16-9.855-6.84c-3.931-1.679-8.505-2.52-13.725-2.52h-23.22v63.9h23.22
		C210.031,248.105,214.367,247.34,218.236,245.81z M194.431,195.095h10.8c2.999,0,5.684,0.51,8.055,1.53
		c2.37,1.021,4.365,2.461,5.985,4.32c1.62,1.861,2.849,4.081,3.69,6.66c0.84,2.581,1.26,5.4,1.26,8.46c0,3.001-0.42,5.791-1.26,8.37
		c-0.841,2.58-2.056,4.815-3.645,6.705c-1.59,1.89-3.57,3.375-5.94,4.455c-2.371,1.08-5.085,1.62-8.145,1.62h-10.8V195.095z"/>
	<path id="XMLID_104_" d="M268.77,237.53c-2.461,0-4.86-0.3-7.2-0.9c-2.34-0.599-4.47-1.334-6.39-2.205
		c-1.921-0.869-3.586-1.74-4.995-2.61c-1.411-0.869-2.385-1.575-2.925-2.115l-5.49,10.71c3.72,2.641,7.92,4.68,12.6,6.12
		c4.68,1.44,9.419,2.16,14.22,2.16c3.119,0,6.104-0.346,8.955-1.035c2.849-0.689,5.369-1.785,7.56-3.285
		c2.189-1.499,3.929-3.465,5.22-5.895c1.29-2.43,1.935-5.355,1.935-8.775c0-2.939-0.481-5.414-1.44-7.425
		c-0.961-2.01-2.326-3.735-4.095-5.175c-1.771-1.44-3.931-2.64-6.48-3.6c-2.551-0.959-5.386-1.859-8.505-2.7
		c-2.401-0.599-4.516-1.17-6.345-1.71c-1.831-0.54-3.345-1.139-4.545-1.8c-1.201-0.659-2.115-1.424-2.745-2.295
		c-0.63-0.869-0.945-1.964-0.945-3.285c0-2.28,0.839-4.05,2.52-5.31c1.679-1.26,4.23-1.89,7.65-1.89c1.919,0,3.81,0.24,5.67,0.72
		c1.859,0.481,3.585,1.066,5.175,1.755c1.589,0.69,2.939,1.395,4.05,2.115c1.109,0.72,1.875,1.291,2.295,1.71l5.49-10.08
		c-2.821-1.919-6.12-3.584-9.9-4.995c-3.78-1.409-7.92-2.115-12.42-2.115c-3.24,0-6.271,0.436-9.09,1.305
		c-2.821,0.871-5.296,2.146-7.425,3.825c-2.13,1.681-3.795,3.78-4.995,6.3c-1.201,2.52-1.8,5.4-1.8,8.64
		c0,2.461,0.374,4.576,1.125,6.345c0.75,1.771,1.875,3.33,3.375,4.68c1.499,1.35,3.375,2.52,5.625,3.51
		c2.25,0.99,4.905,1.906,7.965,2.745c2.52,0.72,4.799,1.381,6.84,1.98c2.039,0.601,3.78,1.26,5.22,1.98
		c1.44,0.72,2.549,1.561,3.33,2.52c0.779,0.96,1.17,2.13,1.17,3.51C279.031,235.341,275.61,237.53,268.77,237.53z"/>
</g>
<g>
</g>
<g>
</g>
<g>
</g>
<g>
</g>
<g>
</g>
<g>
</g>
<g>
</g>
<g>
</g>
<g>
</g>
<g>
</g>
<g>
</g>
<g>
</g>
<g>
</g>
<g>
</g>
<g>
</g>
</svg>
