<svg fill="#000000" xmlns="http://www.w3.org/2000/svg"  viewBox="0 0 64 64" width="64px" height="64px"><path d="M 9 6 C 7.3550302 6 6 7.3550302 6 9 L 6 55 C 6 56.64497 7.3550302 58 9 58 L 55 58 C 56.64497 58 58 56.64497 58 55 L 58 9 C 58 7.3550302 56.64497 6 55 6 L 9 6 z M 9 8 L 55 8 C 55.56503 8 56 8.4349698 56 9 L 56 55 C 56 55.56503 55.56503 56 55 56 L 9 56 C 8.4349698 56 8 55.56503 8 55 L 8 9 C 8 8.4349698 8.4349698 8 9 8 z M 14 12 C 12.906937 12 12 12.906937 12 14 L 12 37 A 1.0001 1.0001 0 0 0 12.960938 38 C 12.960938 38 17.945546 38.177622 25.222656 35.742188 C 32.499767 33.306753 42.160403 28.252386 51.736328 17.84375 A 1.0001 1.0001 0 0 0 52 17.167969 L 52 14 C 52 12.906937 51.093063 12 50 12 L 14 12 z M 14 14 L 50 14 L 50 16.742188 C 42.730049 24.566832 35.490226 29.194224 29.353516 31.955078 C 30.303079 30.47525 31 28.514685 31 25.998047 C 31 21.907022 29.900391 19.566406 29.900391 19.566406 A 1.0001 1.0001 0 0 0 29.021484 19 A 1.0001 1.0001 0 0 0 28.431641 19.177734 C 24.514626 21.889275 21 25.649741 21 30.625 C 21 32.568934 21.395479 33.824916 21.90625 34.658203 C 17.599308 35.845849 14.950625 35.934933 14 35.939453 L 14 14 z M 28.501953 21.666016 C 28.7479 22.576668 29 23.927966 29 25.998047 C 29 29.416515 27.61469 31.35363 26.224609 32.546875 C 25.148353 33.470733 24.290859 33.805576 23.873047 33.949219 C 23.813157 33.896599 23.77014 33.876849 23.6875 33.761719 C 23.401075 33.362688 23 32.479167 23 30.625 C 23 27.017251 25.377518 24.072512 28.501953 21.666016 z M 50.228516 22.363281 C 44.425357 29.388157 36.815871 34.060743 29.789062 36.966797 C 22.762254 39.872851 16.279762 41 13 41 A 1.0001 1.0001 0 0 0 12 42 L 12 50 C 12 51.093063 12.906937 52 14 52 L 17 52 A 1.0001 1.0001 0 1 0 17 50 L 14 50 L 14 42.871094 C 17.819382 42.720088 23.786992 41.613347 30.554688 38.814453 C 31.767567 38.312847 32.99722 37.735917 34.230469 37.123047 C 34.400297 37.682088 34.688556 38.389778 35.207031 39.09375 C 36.297721 40.574659 38.431307 42 42 42 C 45.222222 42 47.447266 40.894531 47.447266 40.894531 A 1.0001 1.0001 0 0 0 47.927734 39.628906 C 46.310794 35.581888 42.84451 34.183222 39.691406 34.03125 C 43.31318 31.711098 46.84327 28.888881 50 25.478516 L 50 50 L 47 50 A 1.0001 1.0001 0 1 0 47 52 L 50 52 C 51.093063 52 52 51.093063 52 50 L 52 23 L 51 24 L 50.228516 22.363281 z M 39.123047 36 C 41.649749 36.005 44.046513 36.799901 45.539062 39.472656 C 44.756667 39.72782 43.637258 40 42 40 C 38.933693 40 37.566967 38.925341 36.816406 37.90625 C 36.300689 37.206023 36.324827 36.899258 36.253906 36.546875 C 36.88295 36.291083 37.799253 35.997215 39.123047 36 z M 21.984375 47.986328 A 1.0001 1.0001 0 0 0 21 49 L 21 51 A 1.0001 1.0001 0 1 0 23 51 L 23 49 A 1.0001 1.0001 0 0 0 21.984375 47.986328 z M 26.984375 47.986328 A 1.0001 1.0001 0 0 0 26 49 L 26 51 A 1.0001 1.0001 0 1 0 28 51 L 28 49 A 1.0001 1.0001 0 0 0 26.984375 47.986328 z M 31.984375 47.986328 A 1.0001 1.0001 0 0 0 31 49 L 31 51 A 1.0001 1.0001 0 1 0 33 51 L 33 49 A 1.0001 1.0001 0 0 0 31.984375 47.986328 z M 36.984375 47.986328 A 1.0001 1.0001 0 0 0 36 49 L 36 51 A 1.0001 1.0001 0 1 0 38 51 L 38 49 A 1.0001 1.0001 0 0 0 36.984375 47.986328 z M 41.984375 47.986328 A 1.0001 1.0001 0 0 0 41 49 L 41 51 A 1.0001 1.0001 0 1 0 43 51 L 43 49 A 1.0001 1.0001 0 0 0 41.984375 47.986328 z"/></svg>