<?xml version="1.0" encoding="iso-8859-1"?>
<!-- Generator: Adobe Illustrator 19.0.0, SVG Export Plug-In . SVG Version: 6.00 Build 0)  -->
<svg version="1.1" id="Layer_1" xmlns="http://www.w3.org/2000/svg" xmlns:xlink="http://www.w3.org/1999/xlink" x="0px" y="0px"
	 viewBox="0 0 496 496" style="enable-background:new 0 0 496 496;" xml:space="preserve">
<g>
	<g>
		<g>
			<path d="M96,80H32v64h64V80z M80,128H48V96h32V128z"/>
			<path d="M96,160H32v64h64V160z M80,208H48v-32h32V208z"/>
			<path d="M96,240H32v64h64V240z M80,288H48v-32h32V288z"/>
			<rect x="48" y="336" width="192" height="16"/>
			<path d="M304,192c0-17.648-14.352-32-32-32s-32,14.352-32,32s14.352,32,32,32S304,209.648,304,192z M272,208
				c-8.824,0-16-7.176-16-16c0-8.824,7.176-16,16-16c8.824,0,16,7.176,16,16C288,200.824,280.824,208,272,208z"/>
			<path d="M272,80c-61.76,0-112,50.24-112,112s50.24,112,112,112s112-50.24,112-112S333.76,80,272,80z M272,288
				c-35.44,0-66.384-19.352-83.016-48h166.024C338.384,268.648,307.44,288,272,288z M214.136,224L272,127.544L329.864,224H272
				H214.136z M272,96.456l-84.56,140.928C180.152,223.856,176,208.408,176,192c0-52.936,43.064-96,96-96c52.936,0,96,43.064,96,96
				c0,16.408-4.152,31.856-11.44,45.384L272,96.456z"/>
			<path d="M483.72,344.408L423.312,284l14.344-14.344l-11.312-11.312L412,272.688l-12.984-12.984
				C409.824,239.504,416,216.464,416,192c0-76.696-60.328-139.408-136-143.592V48h-24V0H32v48H0v448h288V335.056
				c18.512-2.056,35.976-7.624,51.704-16.04L352.688,332l-14.344,14.344l11.312,11.312L364,343.312l60.408,60.408
				c7.92,7.92,18.456,12.28,29.656,12.28c23.12,0,41.936-18.816,41.936-41.936C496,362.856,491.64,352.328,483.72,344.408z M48,16
				h192v32H48V16z M136,480H96v-96h40V480z M192,480h-40v-96h40V480z M272,480h-64V368H80v112H16V64h190.336
				C195.304,69.68,185.152,76.76,176,84.976V80h-64v64h24.4c-1.848,5.208-3.448,10.536-4.696,16H112v64h19.712
				c1.248,5.464,2.84,10.792,4.696,16H112v64h64v-4.976C201.512,321.928,235.104,336,272,336V480z M128,128V96h32v5.696
				c-6.528,8.088-12.12,16.928-16.8,26.304H128z M160,282.304V288h-32v-32h15.2C147.88,265.384,153.472,274.224,160,282.304z
				 M128.944,208H128v-16v-16h0.944c-0.584,5.264-0.944,10.584-0.944,16S128.36,202.736,128.944,208z M272,320
				c-70.576,0-128-57.424-128-128S201.424,64,272,64s128,57.424,128,128S342.576,320,272,320z M364,320.688l-10.272-10.272
				c14.328-9.92,26.768-22.36,36.688-36.688L400.688,284L364,320.688z M454.064,400c-6.928,0-13.448-2.696-18.344-7.592L375.312,332
				L412,295.312l60.408,60.408c4.896,4.896,7.592,11.416,7.592,18.344C480,388.368,468.368,400,454.064,400z"/>
		</g>
	</g>
</g>
<g>
</g>
<g>
</g>
<g>
</g>
<g>
</g>
<g>
</g>
<g>
</g>
<g>
</g>
<g>
</g>
<g>
</g>
<g>
</g>
<g>
</g>
<g>
</g>
<g>
</g>
<g>
</g>
<g>
</g>
</svg>
